<svg width="317" height="77" viewBox="0 0 317 77" fill="none" xmlns="http://www.w3.org/2000/svg">
<g clip-path="url(#clip0_2626_14903)">
<path d="M314.903 37.1002C314.903 37.1002 314.883 37.0702 314.873 37.0502C314.333 36.0102 313.713 34.9802 313.013 34.0102C312.003 32.5602 310.723 31.1902 309.223 29.9302C307.903 28.8202 306.473 27.8302 304.973 26.9702C303.513 26.1402 302.073 25.4502 300.683 24.9302C297.353 23.6802 293.923 23.1202 290.493 23.2702C287.903 23.3802 285.383 23.8502 282.973 24.6702C282.563 23.2202 281.853 21.8402 280.853 20.6202C279.203 18.5802 276.823 17.1702 273.553 16.3002C270.403 15.4602 267.723 15.4602 265.343 16.3002C264.183 16.7102 263.123 17.2802 262.183 17.9902C261.623 16.8302 260.933 15.7602 260.123 14.8102C258.033 12.3602 255.143 11.3702 253.153 10.8402C250.043 10.0102 247.383 10.0002 245.013 10.8002C243.593 11.2802 242.313 12.0102 241.223 12.9602C239.773 11.3902 238.153 10.0202 236.393 8.88019C233.523 7.02019 230.293 5.7802 226.803 5.1902C223.343 4.6102 219.903 4.7502 216.573 5.6102C213.573 6.39019 210.783 7.70019 208.263 9.49019C207.673 8.74019 207.053 8.06019 206.403 7.43019C206.393 7.42019 206.383 7.41019 206.363 7.39019C204.463 5.59019 202.363 4.1702 200.103 3.1702C197.833 2.1602 195.573 1.56019 193.383 1.3902L183.663 0.620195C180.333 0.360195 177.633 0.870195 175.403 2.2002C172.873 3.7102 171.063 6.0702 170.303 8.85019C170.203 9.21019 170.113 9.58019 170.033 9.95019L168.713 7.3202C167.973 5.81019 166.963 4.47019 165.723 3.35019C164.563 2.31019 163.243 1.4802 161.803 0.900195C160.243 0.270195 158.553 -0.029805 156.873 -0.00980499C154.463 0.020195 152.173 0.720195 150.063 2.05019C147.953 3.39019 146.313 5.2302 145.203 7.54019L144.423 9.20019C144.393 9.09019 144.363 8.98019 144.333 8.86019C143.533 6.09019 141.783 3.83019 139.263 2.34019C137.013 1.00019 134.283 0.500195 130.913 0.810195C127.583 1.1202 125.013 2.10019 123.053 3.79019C122.373 4.37019 121.773 5.03019 121.253 5.74019C120.643 5.17019 119.963 4.66019 119.213 4.2102C116.973 2.87019 114.233 2.3802 110.863 2.6802C107.533 2.9902 104.963 3.97019 103.003 5.66019C102.723 5.90019 102.453 6.16019 102.193 6.43019C102.093 6.39019 101.983 6.3602 101.863 6.3202C100.463 5.8502 98.8634 5.5002 96.9834 5.2502C94.7834 4.9602 92.4134 5.04019 89.9134 5.49019C87.9034 5.85019 85.8034 6.5302 83.6534 7.5102C81.5334 8.4802 79.4734 9.75019 77.5334 11.2802C75.4234 12.9502 73.5734 14.9802 72.0434 17.3102C70.8734 19.0802 69.9434 21.0202 69.2634 23.1002L65.1934 18.4702C64.0834 17.1802 62.7634 16.1302 61.2734 15.3602C59.8834 14.6502 58.4134 14.1802 56.8834 13.9902C55.2134 13.7702 53.5234 13.9002 51.8734 14.3602C49.5434 15.0002 47.5034 16.2602 45.7934 18.0902C44.0934 19.9302 42.9834 22.1202 42.4934 24.6302L41.4234 30.5002C40.2034 27.9202 38.0834 25.9402 35.3834 24.8902C34.2834 24.4702 33.1234 24.1102 31.9434 23.8502C30.2234 23.4502 28.3634 23.2702 26.4034 23.3402C24.6734 23.4002 22.9534 23.6102 21.2634 23.9602C19.6334 24.3102 18.0934 24.7602 16.7034 25.3002C13.3934 26.5902 10.4634 28.4602 7.99344 30.8502C5.58344 33.2002 3.66344 35.9202 2.29344 38.9502C0.953437 42.0202 0.173438 45.2502 0.0234375 48.5902C-0.126563 52.0302 0.443438 55.4602 1.73344 58.7802C3.03344 62.1302 4.90344 65.0902 7.29344 67.6002C9.65344 70.0902 12.4034 72.0702 15.4634 73.4802C18.5234 74.9002 21.7734 75.7202 25.1134 75.9102C28.5934 76.1102 32.0634 75.5502 35.3834 74.2602C36.9234 73.6602 38.3834 72.9902 39.7234 72.2602C41.0934 71.5202 42.3734 70.7002 43.5434 69.8402C44.6834 69.0002 45.7034 68.0902 46.5934 67.1402C47.0034 67.2402 47.4134 67.3302 47.8334 67.4102C51.7934 68.1502 55.0834 67.6302 57.7434 65.8702C60.4634 64.0702 62.1834 61.2402 63.0034 57.2102V57.1502L64.3434 56.7802C67.0234 59.8402 70.0334 61.4702 73.3034 61.6202C76.4834 61.7502 79.5334 60.5402 82.5834 57.8802L82.7634 57.7202C83.5934 56.9602 84.3034 56.1902 84.9034 55.4002C85.0934 55.4702 85.2834 55.5402 85.4734 55.6002C87.8534 56.4202 90.2434 56.9202 92.5734 57.1002C94.8734 57.2702 97.0734 57.1902 99.0334 56.8402C101.663 56.3702 103.893 55.6402 105.863 54.6302C106.933 54.0802 107.883 53.5102 108.733 52.9102C110.693 53.7102 112.923 53.9802 115.613 53.7302C118.943 53.4202 121.513 52.4502 123.483 50.7502C124.163 50.1602 124.773 49.5002 125.293 48.7802C125.933 49.3902 126.653 49.9202 127.433 50.3702C129.683 51.6702 132.373 52.1602 135.673 51.8502C137.523 51.6802 139.133 51.3002 140.543 50.7002C143.803 52.0402 146.743 52.2202 149.503 51.2802C152.593 50.2202 154.973 47.9202 156.793 44.2402L156.823 44.1802L158.193 44.1602C160.003 47.8002 162.513 50.1402 165.633 51.1202C168.313 51.9602 171.143 51.7302 174.273 50.4302C175.783 51.1202 177.523 51.5302 179.563 51.6902C182.923 51.9502 185.593 51.4402 187.823 50.1102C190.343 48.6002 192.153 46.2402 192.913 43.4602C192.923 43.4102 192.943 43.3702 192.953 43.3202C194.323 43.2102 195.673 42.9902 196.973 42.6402C197.773 42.4302 198.583 42.1502 199.403 41.8302C200.083 43.3602 200.903 44.8202 201.843 46.1802C203.753 48.9202 206.143 51.2302 208.963 53.0602C211.833 54.9202 215.053 56.1602 218.553 56.7502C222.013 57.3302 225.483 57.1802 228.783 56.3002C229.863 56.0102 230.943 55.6402 232.013 55.1902C232.223 55.5002 232.443 55.7902 232.683 56.0802C234.333 58.0802 236.683 59.4602 239.843 60.3102C243.073 61.1702 245.823 61.1502 248.263 60.2402C249.323 59.8402 250.313 59.3002 251.193 58.6302C252.113 60.8002 253.623 62.5902 255.573 63.8302C256.843 64.6302 258.343 65.2502 260.303 65.7802C263.543 66.6502 266.293 66.6202 268.723 65.7102C269.323 65.4802 269.903 65.2102 270.453 64.9002C271.303 66.1102 272.233 67.2202 273.233 68.2202C275.703 70.7002 278.643 72.5902 281.983 73.8402C283.533 74.4202 285.063 74.8902 286.553 75.2502C288.063 75.6102 289.573 75.8602 291.013 75.9902C291.753 76.0602 292.493 76.0902 293.213 76.0902C294.073 76.0902 294.923 76.0402 295.703 75.9502C298.373 75.6402 300.783 74.8702 302.863 73.6502C306.353 71.6102 307.923 68.9502 308.623 67.0702L312.153 57.6702C312.573 56.5602 312.883 55.4102 313.093 54.2702C313.353 52.8002 313.323 51.3402 313.003 49.9002C314.083 48.7402 314.893 47.4502 315.413 46.0602C316.523 43.0902 316.353 39.9102 314.923 37.0902L314.903 37.1002ZM94.1834 31.2102C94.1834 31.2102 94.2534 31.1802 94.2734 31.1702C94.2834 31.1702 94.3034 31.1702 94.3134 31.1702C94.2934 31.1802 94.2834 31.2002 94.2634 31.2102C94.2434 31.2102 94.2134 31.2102 94.1834 31.2102ZM94.2434 31.2302C94.2434 31.2302 94.2334 31.2302 94.2234 31.2302C94.1934 31.2302 94.1734 31.2302 94.1434 31.2402C94.1434 31.2402 94.2134 31.2302 94.2434 31.2202V31.2302ZM93.9234 31.3102C93.7934 31.3602 93.6634 31.4202 93.5434 31.4902C93.6834 31.4102 93.8134 31.3502 93.9234 31.3102Z" fill="#69A4F2"/>
<path d="M311.122 36.0096C311.122 36.0096 311.122 35.9996 311.122 35.9896C310.632 35.0296 310.052 34.0696 309.392 33.1596C308.482 31.8596 307.332 30.6196 305.962 29.4696C304.732 28.4396 303.402 27.5096 302.002 26.7096C300.642 25.9296 299.292 25.2896 298.002 24.8096C294.932 23.6596 291.772 23.1396 288.602 23.2696C285.492 23.3996 282.492 24.0896 279.682 25.3396C279.592 25.3796 279.502 25.4296 279.412 25.4696C279.372 23.4396 278.662 21.5196 277.332 19.8796C275.962 18.1896 273.912 16.9896 271.072 16.2296C268.332 15.4996 266.032 15.4796 264.042 16.1896C262.152 16.8496 260.612 18.0096 259.522 19.5696L258.722 17.5496C258.192 16.2796 257.492 15.1196 256.642 14.1196C254.912 12.0996 252.412 11.2496 250.672 10.7796C247.962 10.0596 245.682 10.0296 243.692 10.6996C241.832 11.3296 240.282 12.4796 239.192 13.9796C237.562 11.8696 235.612 10.0396 233.342 8.55963C230.702 6.84963 227.732 5.70963 224.512 5.16963C221.332 4.62963 218.172 4.75963 215.122 5.55963C212.132 6.33963 209.372 7.67963 206.902 9.55963C206.552 9.81963 206.232 10.1196 205.902 10.3996C205.092 9.11963 204.152 7.93963 203.072 6.89963C201.332 5.24963 199.402 3.93963 197.342 3.02963C195.282 2.10963 193.242 1.56963 191.272 1.40963L181.552 0.639627C178.652 0.409627 176.342 0.839627 174.472 1.93963C172.392 3.17963 170.902 5.11963 170.272 7.39963C169.982 8.45963 169.792 9.56963 169.702 10.6896L169.362 15.0096L164.972 6.22963C164.342 4.93963 163.492 3.81963 162.442 2.86963C161.452 1.97963 160.342 1.27963 159.112 0.789627C157.802 0.259627 156.372 -0.000373427 154.952 0.0196266C152.912 0.0496266 150.972 0.639627 149.192 1.76963C147.402 2.90963 146.022 4.43963 145.072 6.41963L141.412 14.2596L141.092 10.7896C140.982 9.63963 140.772 8.52963 140.472 7.45963C139.812 5.18963 138.372 3.32963 136.302 2.09963C134.432 0.979627 132.092 0.569627 129.162 0.849627C126.262 1.11963 124.062 1.93963 122.422 3.34963C121.122 4.46963 120.172 5.88963 119.652 7.43963C118.872 6.01963 117.722 4.83963 116.262 3.96963C114.392 2.84963 112.052 2.44963 109.122 2.71963C106.222 2.98963 104.022 3.80963 102.382 5.21963C101.822 5.69963 101.332 6.24963 100.912 6.82963C100.572 6.69963 100.082 6.52963 99.302 6.26963C98.022 5.83963 96.552 5.51963 94.802 5.28963C92.812 5.02963 90.632 5.09963 88.352 5.50963C86.502 5.83963 84.562 6.46963 82.572 7.37963C80.5919 8.27963 78.672 9.46963 76.872 10.8996C74.932 12.4396 73.222 14.3096 71.802 16.4596C70.332 18.6896 69.2719 21.2296 68.642 23.9896C68.542 24.4396 68.462 24.8996 68.392 25.3596L61.772 17.8096C60.832 16.7096 59.712 15.8296 58.452 15.1796C57.272 14.5696 56.022 14.1796 54.722 14.0096C53.312 13.8296 51.892 13.9296 50.502 14.3196C48.542 14.8596 46.812 15.9196 45.362 17.4796C43.912 19.0396 42.982 20.8796 42.562 23.0196L40.202 35.9996C39.702 35.5496 39.152 35.1496 38.552 34.8096C38.582 34.4896 38.602 34.1796 38.612 33.8696C38.662 32.4896 38.452 31.1996 37.982 29.9996C37.042 27.5696 35.192 25.7196 32.762 24.7796C31.752 24.3896 30.682 24.0696 29.582 23.8196C28.032 23.4596 26.352 23.2996 24.562 23.3596C22.952 23.4096 21.352 23.6096 19.772 23.9396C18.242 24.2696 16.812 24.6896 15.522 25.1896C12.462 26.3796 9.76195 28.0996 7.48195 30.3096C5.25195 32.4796 3.48195 34.9996 2.21195 37.7996C0.871952 40.6096 0.161952 43.5996 0.0219517 46.6796C-0.118048 49.8396 0.411952 52.9996 1.60195 56.0496C2.81195 59.1496 4.54195 61.8996 6.74195 64.2196C8.93195 66.5196 11.482 68.3596 14.302 69.6696C17.132 70.9896 20.132 71.7396 23.222 71.9196C23.652 71.9396 24.072 71.9596 24.502 71.9596C27.272 71.9596 30.012 71.4396 32.662 70.4096C34.122 69.8396 35.512 69.2096 36.772 68.5196C38.062 67.8196 39.262 67.0596 40.352 66.2496C41.562 65.3596 42.632 64.3796 43.512 63.3696C43.652 63.2096 43.782 63.0396 43.912 62.8696C44.622 63.1096 45.372 63.3096 46.192 63.4596C47.242 63.6596 48.232 63.7596 49.162 63.7596C51.272 63.7596 53.072 63.2496 54.622 62.2196C56.882 60.7196 58.322 58.3096 59.032 54.8296C59.032 54.7796 59.052 54.7296 59.062 54.6796L59.262 53.5596L63.002 52.5296L63.712 53.3296C64.622 54.3896 67.282 57.4396 71.382 57.6296C74.032 57.7496 76.612 56.6896 79.262 54.3796C79.312 54.3396 79.352 54.2996 79.402 54.2596C80.602 53.1496 81.492 52.0596 82.152 50.9396C82.802 51.2296 83.452 51.4896 84.112 51.7196C86.342 52.4796 88.562 52.9496 90.722 53.1196C91.452 53.1796 92.1619 53.1996 92.852 53.1996C94.212 53.1996 95.492 53.0896 96.672 52.8796C99.102 52.4396 101.152 51.7796 102.932 50.8596C104.352 50.1296 105.512 49.3796 106.492 48.5896C107.962 49.4096 109.692 49.8296 111.752 49.8296C112.282 49.8296 112.832 49.7996 113.412 49.7496C116.312 49.4796 118.522 48.6596 120.162 47.2496C121.462 46.1296 122.412 44.7096 122.942 43.1396C123.742 44.5896 124.942 45.8096 126.422 46.6596C128.292 47.7496 130.602 48.1496 133.472 47.8796C135.462 47.6896 137.122 47.2396 138.502 46.5296C140.452 47.4396 142.252 47.8896 143.942 47.8896C144.942 47.8896 145.912 47.7296 146.852 47.4096C149.412 46.5296 151.422 44.5596 152.992 41.3896C153.012 41.3396 153.032 41.2996 153.062 41.2496L153.542 40.2196L157.422 40.1696L157.902 41.1296C158.512 42.3896 160.312 46.0096 164.232 47.2396C166.672 47.9996 169.332 47.6696 172.332 46.2496C173.792 47.0696 175.572 47.5596 177.722 47.7296C178.232 47.7696 178.722 47.7896 179.192 47.7896C181.422 47.7896 183.262 47.3396 184.802 46.4196C186.882 45.1796 188.372 43.2396 188.992 40.9596C189.132 40.4496 189.242 39.9396 189.342 39.4196C190.972 39.3996 192.712 39.1996 194.472 38.7396C195.852 38.3696 197.192 37.8296 198.492 37.1596C199.222 39.2596 200.222 41.2396 201.492 43.0596C203.252 45.5896 205.462 47.7196 208.052 49.3996C210.692 51.1096 213.662 52.2496 216.882 52.7896C218.162 52.9996 219.432 53.1096 220.682 53.1096C222.572 53.1096 224.442 52.8696 226.262 52.3796C227.852 51.9496 229.382 51.3496 230.852 50.6096C231.202 51.3896 231.652 52.1396 232.222 52.8196C233.602 54.4896 235.612 55.6496 238.362 56.3896C241.172 57.1396 243.532 57.1396 245.562 56.3896C247.342 55.7296 248.832 54.5796 249.892 53.0896L250.962 55.7096C251.712 57.5796 252.982 59.1196 254.632 60.1596C255.722 60.8496 257.052 61.3896 258.802 61.8596C260.202 62.2396 261.492 62.4196 262.682 62.4196C263.872 62.4196 264.982 62.2296 266.002 61.8496C267.112 61.4296 268.112 60.8296 268.972 60.0696C270.002 61.7896 271.202 63.3896 272.632 64.8196C274.892 67.0896 277.602 68.8296 280.672 69.9796C282.142 70.5296 283.592 70.9796 285.002 71.3096C286.422 71.6496 287.832 71.8796 289.182 72.0096C289.862 72.0696 290.542 72.0996 291.202 72.0996C291.982 72.0996 292.742 72.0596 293.462 71.9696C295.852 71.6996 298.002 71.0096 299.842 69.9296C302.822 68.1896 304.152 65.9496 304.742 64.3796L308.272 54.9796C308.652 53.9796 308.932 52.9596 309.112 51.9396C309.392 50.3796 309.262 48.8196 308.742 47.3296C308.982 47.1196 309.202 46.8996 309.412 46.6796C310.362 45.6796 311.072 44.5696 311.522 43.3796C312.432 40.9496 312.292 38.3296 311.122 36.0196V36.0096ZM220.282 31.0896C220.122 31.0596 220.032 31.0196 219.942 30.9596C219.782 30.8496 219.662 30.7196 219.542 30.5396C219.372 30.2796 219.262 29.9996 219.182 29.6496C219.122 29.3696 219.112 29.0896 219.182 28.7496C219.242 28.3896 219.342 28.0996 219.492 27.8596C219.682 27.5596 219.882 27.3296 220.122 27.1396C220.292 27.0096 220.452 26.9196 220.642 26.8696C220.692 26.8596 220.752 26.8496 220.832 26.8496C220.892 26.8496 220.962 26.8496 221.052 26.8696C221.212 26.8996 221.302 26.9396 221.392 26.9996C221.552 27.1096 221.672 27.2396 221.792 27.4196C221.962 27.6796 222.082 27.9696 222.152 28.3096C222.212 28.5896 222.212 28.8996 222.152 29.2596C222.082 29.6596 221.972 29.9996 221.802 30.2896C221.662 30.5196 221.522 30.6896 221.362 30.8096C221.182 30.9396 221.002 31.0296 220.762 31.0896C220.662 31.1196 220.522 31.1396 220.282 31.0896ZM92.572 31.1996C92.572 31.1996 92.332 31.2396 91.762 31.1696C91.482 31.1296 91.192 31.0396 90.872 30.8796C90.702 30.7996 90.542 30.6096 90.432 30.4796C90.432 30.4796 90.282 30.2396 90.162 29.5696C90.032 28.8396 90.112 28.5596 90.112 28.5596C90.172 28.3496 90.252 28.1796 90.322 28.1096C90.562 27.8496 90.802 27.6596 91.052 27.5296C91.542 27.2796 91.7919 27.2196 91.8419 27.2096C92.252 27.1396 92.482 27.1196 92.552 27.1196C92.572 27.1196 92.592 27.1196 92.622 27.1196C92.722 27.1596 92.802 27.1896 92.872 27.2296C92.962 27.2696 93.062 27.3196 93.152 27.3596C93.982 27.7096 94.702 27.9696 95.382 28.1696C95.742 28.2696 96.102 28.3596 96.462 28.4196C96.202 28.5696 95.952 28.7296 95.702 28.8996C95.0219 29.3796 94.382 29.9096 93.812 30.4896C93.612 30.6796 93.392 30.8696 93.152 31.0496C93.152 31.0496 92.972 31.1196 92.562 31.1896L92.572 31.1996Z" fill="#B5188D"/>
<path d="M37.1578 43.1704C36.9078 42.5304 36.6178 41.9404 36.2878 41.4104C35.9578 40.8704 35.4678 40.4904 34.8178 40.2704C34.1678 40.0504 33.2278 40.1604 31.9978 40.6004L24.0078 43.7104C23.4878 43.9104 22.9878 44.1604 22.5078 44.4504C22.0278 44.7404 21.7078 45.2004 21.5678 45.8104C21.4178 46.4304 21.5778 47.3304 22.0378 48.5204C22.4978 49.7104 22.9778 50.4904 23.4678 50.8504C23.9578 51.2204 24.4678 51.3604 24.9978 51.2804C25.5278 51.2004 26.0678 51.0504 26.6178 50.8404L29.9978 49.5304L31.5278 53.4604C31.1878 53.7704 30.7778 54.0704 30.2978 54.3604C29.8178 54.6504 29.3178 54.9204 28.7978 55.1504C28.2778 55.3904 27.7478 55.6104 27.1978 55.8304C25.7978 56.3704 24.3478 56.4904 22.8378 56.1804C21.3278 55.8704 19.9678 55.2304 18.7478 54.2504C17.5278 53.2704 16.6278 52.0404 16.0478 50.5404C15.4778 49.0804 15.3178 47.6204 15.5578 46.1604C15.7978 44.7004 16.3778 43.4004 17.2978 42.2504C18.2178 41.1004 19.3978 40.2504 20.8278 39.6904C21.6178 39.3804 22.4078 39.1704 23.1878 39.0604C23.9678 38.9504 24.6578 38.8904 25.2478 38.8904C25.8378 38.8904 26.2578 38.9104 26.4878 38.9604C27.2378 39.0904 27.8178 39.1704 28.2378 39.2004C28.6578 39.2304 29.0278 39.1804 29.3578 39.0504C29.8778 38.8504 30.3478 38.4504 30.7778 37.8404C31.2078 37.2404 31.5478 36.3904 31.7978 35.3204C31.9478 34.7004 32.0278 34.1504 32.0378 33.6504C32.0578 33.1504 31.9878 32.7204 31.8478 32.3604C31.5678 31.6304 31.0578 31.1204 30.3378 30.8404C29.6178 30.5604 28.8478 30.3304 28.0478 30.1504C27.0378 29.9104 25.9278 29.8104 24.6978 29.8504C23.4678 29.8904 22.2578 30.0404 21.0578 30.2904C19.8578 30.5504 18.7778 30.8604 17.7978 31.2404C15.5478 32.1204 13.5878 33.3604 11.9378 34.9604C10.2878 36.5704 8.9878 38.4004 8.0578 40.4604C7.1278 42.5204 6.6078 44.6904 6.5078 46.9504C6.4078 49.2104 6.7878 51.4604 7.6578 53.6804C8.5578 55.9904 9.8178 58.0104 11.4478 59.7204C13.0778 61.4304 14.9378 62.7804 17.0378 63.7504C19.1278 64.7204 21.3178 65.2804 23.5978 65.4104C25.8778 65.5404 28.1078 65.1804 30.2978 64.3304C31.5178 63.8604 32.6378 63.3404 33.6678 62.7804C34.6978 62.2204 35.6278 61.6304 36.4778 61.0004C37.3178 60.3804 38.0478 59.7204 38.6578 59.0204C39.6578 57.9004 40.3478 56.7404 40.7278 55.5604C41.1078 54.3804 41.1378 53.3604 40.8078 52.5104L37.1678 43.1504L37.1578 43.1704Z" fill="#FFD134"/>
<path d="M75.4066 43.2701L56.7766 22.0401C56.3766 21.5801 55.9166 21.2101 55.4066 20.9501C54.8966 20.6901 54.3666 20.5201 53.8166 20.4501C53.2766 20.3801 52.7166 20.4201 52.1466 20.5801C51.3566 20.8001 50.6566 21.2401 50.0466 21.9001C49.4366 22.5601 49.0466 23.3201 48.8766 24.1801L43.8166 52.0201C43.6066 53.1001 43.5766 53.9701 43.7266 54.6401C43.8766 55.3101 44.2466 55.8301 44.8466 56.2101C45.4466 56.5901 46.2966 56.8801 47.3966 57.0801C49.0766 57.4001 50.2866 57.3101 51.0366 56.8101C51.7766 56.3201 52.3266 55.2301 52.6766 53.5401L53.6066 48.4001L65.1966 45.1901L68.6266 49.0701C69.7766 50.4101 70.7966 51.1001 71.6966 51.1501C72.5866 51.1901 73.6866 50.6401 74.9966 49.5001C75.8366 48.7301 76.4066 48.0301 76.7066 47.4001C77.0066 46.7801 77.0466 46.1401 76.8366 45.4801C76.6266 44.8201 76.1466 44.0901 75.4166 43.2801L75.4066 43.2701ZM55.1066 40.0401L56.0466 34.8501L59.5466 38.8101L55.1066 40.0401Z" fill="#FFD134"/>
<path d="M105.579 37.2296C105.319 36.7996 104.959 36.3396 104.509 35.8496C103.729 35.0296 103.029 34.4396 102.399 34.0896C101.769 33.7396 101.189 33.6096 100.639 33.7096C100.219 33.7896 99.8185 33.9596 99.4385 34.2296C99.0585 34.4996 98.7085 34.7896 98.3985 35.1096C98.0585 35.4396 97.6785 35.7696 97.2585 36.1096C96.8385 36.4496 96.3485 36.7496 95.7985 36.9896C95.2485 37.2296 94.5485 37.4396 93.7185 37.5896C92.9185 37.7296 91.9985 37.7396 90.9585 37.6096C89.9185 37.4796 88.9085 37.1696 87.9285 36.6596C86.9385 36.1596 86.0685 35.4296 85.3185 34.4696C84.5685 33.5096 84.0485 32.2596 83.7685 30.7196C83.4985 29.2096 83.5385 27.8696 83.8885 26.6896C84.2385 25.5196 84.7885 24.5196 85.5385 23.6996C86.2885 22.8896 87.1285 22.2396 88.0485 21.7496C88.9685 21.2696 89.8585 20.9496 90.6885 20.7996C91.6885 20.6196 92.5085 20.5596 93.1485 20.6296C93.7885 20.6996 94.3085 20.7996 94.6985 20.9496C95.0885 21.0996 95.4085 21.2296 95.6685 21.3496C96.2785 21.5996 96.7885 21.7896 97.2185 21.9196C97.6385 22.0396 98.0585 22.0696 98.4785 21.9896C99.0285 21.8896 99.5385 21.5796 100.029 21.0596C100.519 20.5396 100.999 19.7696 101.479 18.7596C101.749 18.2096 101.929 17.6996 102.019 17.2196C102.119 16.7396 102.129 16.2896 102.049 15.8696C101.899 15.0296 101.499 14.4196 100.839 14.0196C100.179 13.6196 99.4985 13.2696 98.7785 12.9696C98.5585 12.8796 98.0185 12.6796 97.1585 12.3896C96.2885 12.0996 95.1985 11.8596 93.8685 11.6896C92.5385 11.5196 91.0585 11.5696 89.4185 11.8696C88.0985 12.1096 86.6885 12.5696 85.1885 13.2496C83.6885 13.9396 82.2285 14.8396 80.8185 15.9496C79.4085 17.0696 78.1885 18.4196 77.1385 19.9996C76.0885 21.5796 75.3485 23.3796 74.8985 25.3796C74.4485 27.3896 74.4385 29.6096 74.8785 32.0496C75.3385 34.5896 76.1285 36.7496 77.2685 38.5396C78.3985 40.3296 79.7485 41.7896 81.2985 42.9396C82.8485 44.0896 84.4785 44.9596 86.1985 45.5396C87.9185 46.1196 89.5785 46.4796 91.1985 46.6096C92.8185 46.7296 94.2485 46.6796 95.4985 46.4596C97.2685 46.1396 98.7485 45.6796 99.9285 45.0596C101.109 44.4496 102.039 43.8496 102.689 43.2696C103.349 42.6896 103.779 42.3096 103.979 42.1396C104.549 41.6396 105.079 41.0996 105.549 40.5096C106.029 39.9296 106.189 39.2296 106.049 38.4296C105.979 38.0396 105.809 37.6296 105.549 37.1996L105.579 37.2296Z" fill="#FFD134"/>
<path d="M134.593 11.3698C134.523 10.6198 134.393 9.90978 134.193 9.23978C134.003 8.56978 133.583 8.03978 132.943 7.65978C132.303 7.27978 131.233 7.15978 129.733 7.28978C128.233 7.42978 127.203 7.74978 126.623 8.24978C126.043 8.74978 125.723 9.33978 125.663 10.0398C125.593 10.7398 125.593 11.4398 125.663 12.1598L126.493 20.9898L115.373 22.0298L114.553 13.2498C114.483 12.4998 114.353 11.7898 114.153 11.1198C113.963 10.4498 113.543 9.91978 112.903 9.53978C112.263 9.15978 111.193 9.03978 109.693 9.16978C108.193 9.30978 107.163 9.62978 106.583 10.1298C106.003 10.6298 105.683 11.2198 105.623 11.9198C105.553 12.6098 105.553 13.3198 105.623 14.0398L107.973 39.2098C108.043 39.9298 108.173 40.6298 108.363 41.3098C108.553 41.9998 108.983 42.5298 109.643 42.9098C110.303 43.2898 111.363 43.4098 112.823 43.2798C114.323 43.1398 115.353 42.8198 115.933 42.3198C116.513 41.8198 116.833 41.2298 116.893 40.5298C116.963 39.8298 116.963 39.1298 116.893 38.4098L116.073 29.6298L127.193 28.5898L128.013 37.3198C128.083 38.0398 128.213 38.7398 128.403 39.4198C128.593 40.1098 129.023 40.6398 129.683 41.0198C130.343 41.3998 131.403 41.5198 132.863 41.3898C134.363 41.2498 135.393 40.9298 135.973 40.4298C136.553 39.9298 136.873 39.3398 136.933 38.6398C137.003 37.9498 137.003 37.2398 136.933 36.5198L134.583 11.3498L134.593 11.3698Z" fill="#FFD134"/>
<path d="M159.112 9.09023C158.842 8.54023 158.492 8.07023 158.062 7.68023C157.632 7.29023 157.162 7.00023 156.652 6.79023C156.142 6.58023 155.592 6.49023 155.002 6.49023C154.182 6.50023 153.392 6.75023 152.632 7.23023C151.872 7.71023 151.302 8.35023 150.922 9.14023L138.962 34.7802C138.482 35.7702 138.232 36.6002 138.212 37.2902C138.192 37.9802 138.422 38.5802 138.902 39.0902C139.382 39.6002 140.132 40.1002 141.152 40.5802C142.692 41.3102 143.892 41.5302 144.742 41.2402C145.582 40.9502 146.392 40.0302 147.152 38.4902L149.352 33.7602L161.372 33.6002L163.712 38.2202C164.482 39.8102 165.292 40.7402 166.152 41.0102C167.002 41.2802 168.212 41.0202 169.772 40.2502C170.772 39.7102 171.502 39.1802 171.952 38.6502C172.402 38.1202 172.602 37.5102 172.562 36.8302C172.522 36.1402 172.252 35.3202 171.742 34.3402L159.112 9.07023V9.09023ZM152.932 26.0802L155.152 21.3002L157.532 26.0202L152.922 26.0802H152.932Z" fill="#FFD134"/>
<path d="M198.56 11.6C197.36 10.46 196.06 9.57002 194.67 8.96002C193.28 8.35002 191.96 7.98002 190.72 7.88002L181 7.11002C179.5 6.99002 178.43 7.13002 177.77 7.52002C177.12 7.91002 176.7 8.44002 176.51 9.12002C176.33 9.79002 176.2 10.49 176.15 11.2L174.14 36.4C174.08 37.12 174.09 37.83 174.17 38.54C174.25 39.25 174.57 39.85 175.16 40.34C175.74 40.83 176.77 41.13 178.23 41.25C179.73 41.37 180.8 41.23 181.46 40.84C182.12 40.45 182.53 39.92 182.72 39.24C182.91 38.56 183.03 37.87 183.08 37.16L183.45 32.47L188.68 32.89C189.95 32.99 191.32 32.85 192.79 32.46C194.26 32.07 195.68 31.41 197.05 30.49C198.42 29.57 199.57 28.36 200.51 26.86C201.45 25.36 202 23.56 202.17 21.44C202.34 19.29 202.08 17.4 201.39 15.77C200.7 14.14 199.75 12.76 198.55 11.61L198.56 11.6ZM193.29 20.67C193.22 21.58 192.95 22.28 192.48 22.77C192.02 23.26 191.5 23.59 190.93 23.75C190.36 23.92 189.86 23.98 189.44 23.95L184.16 23.53L184.73 16.4L189.96 16.82C190.64 16.87 191.24 17.08 191.75 17.43C192.26 17.78 192.66 18.24 192.94 18.8C193.22 19.36 193.34 19.99 193.28 20.67H193.29Z" fill="#FFD134"/>
<path d="M237.248 24.76C236.728 22.5 235.838 20.46 234.558 18.62C233.278 16.78 231.688 15.25 229.788 14.02C227.888 12.79 225.768 11.98 223.418 11.58C221.128 11.2 218.908 11.29 216.738 11.85C214.568 12.41 212.598 13.37 210.808 14.73C209.018 16.09 207.528 17.76 206.318 19.74C205.108 21.72 204.298 23.94 203.888 26.39C203.488 28.74 203.558 31.03 204.098 33.26C204.638 35.49 205.548 37.52 206.828 39.36C208.108 41.2 209.698 42.73 211.598 43.96C213.498 45.19 215.618 46 217.968 46.4C220.258 46.78 222.468 46.69 224.598 46.12C226.728 45.55 228.698 44.6 230.498 43.26C232.298 41.92 233.798 40.28 235.008 38.33C236.218 36.38 237.018 34.21 237.418 31.83C237.828 29.38 237.778 27.03 237.268 24.77L237.248 24.76ZM228.558 30.33C228.358 31.52 227.968 32.61 227.388 33.59C226.808 34.57 226.098 35.38 225.238 36.01C224.388 36.65 223.438 37.1 222.398 37.37C221.358 37.64 220.288 37.69 219.198 37.5C218.138 37.32 217.168 36.93 216.288 36.34C215.408 35.75 214.678 34.99 214.088 34.08C213.498 33.17 213.078 32.16 212.828 31.06C212.578 29.96 212.558 28.83 212.748 27.67C212.948 26.48 213.348 25.4 213.938 24.44C214.528 23.48 215.258 22.67 216.108 22C216.968 21.33 217.908 20.86 218.928 20.59C219.948 20.31 221.008 20.27 222.108 20.45C223.168 20.63 224.138 21.01 225.018 21.61C225.898 22.2 226.628 22.96 227.218 23.87C227.808 24.78 228.228 25.79 228.478 26.89C228.728 27.99 228.748 29.14 228.548 30.33H228.558Z" fill="#FFD134"/>
<path d="M272.889 25.8802C272.939 25.1802 272.729 24.5402 272.259 23.9602C271.789 23.3802 270.829 22.8902 269.379 22.5002C267.959 22.1202 266.889 22.0602 266.189 22.3102C265.479 22.5602 264.969 22.9802 264.659 23.5702C264.349 24.1602 264.099 24.8102 263.909 25.5002L260.279 39.0902L252.699 20.0202C252.429 19.3702 252.089 18.8102 251.679 18.3302C251.269 17.8502 250.369 17.4202 248.979 17.0502C247.559 16.6702 246.489 16.6002 245.759 16.8502C245.029 17.1002 244.519 17.5202 244.229 18.1102C243.929 18.7102 243.689 19.3502 243.509 20.0502L236.939 44.6202C236.749 45.3502 236.619 46.0602 236.569 46.7502C236.519 47.4502 236.739 48.0902 237.219 48.6702C237.709 49.2602 238.639 49.7302 240.029 50.1102C241.479 50.5002 242.559 50.5602 243.279 50.2902C243.989 50.0202 244.499 49.5802 244.809 48.9502C245.109 48.3202 245.359 47.6602 245.539 46.9702L249.059 33.8102L256.989 53.2802C257.229 53.8902 257.609 54.3502 258.109 54.6702C258.609 54.9902 259.399 55.2902 260.479 55.5802C261.929 55.9702 263.009 56.0302 263.729 55.7602C264.439 55.4902 264.949 55.0502 265.259 54.4202C265.569 53.7902 265.809 53.1302 265.989 52.4402L272.519 28.0102C272.709 27.2802 272.839 26.5702 272.889 25.8802Z" fill="#FFD134"/>
<path d="M305.317 38.9498C304.967 38.2598 304.547 37.5798 304.067 36.9098C303.477 36.0598 302.717 35.2398 301.767 34.4498C300.827 33.6598 299.817 32.9598 298.757 32.3498C297.697 31.7398 296.677 31.2498 295.697 30.8898C293.437 30.0398 291.147 29.6598 288.847 29.7598C286.547 29.8598 284.357 30.3598 282.287 31.2798C280.217 32.1998 278.387 33.4598 276.807 35.0798C275.217 36.6998 274.007 38.6298 273.177 40.8598C272.307 43.1798 271.907 45.5298 271.977 47.8898C272.047 50.2598 272.547 52.4998 273.457 54.6198C274.367 56.7398 275.627 58.6098 277.237 60.2298C278.847 61.8498 280.757 63.0698 282.957 63.8898C284.177 64.3498 285.357 64.7098 286.497 64.9798C287.637 65.2498 288.727 65.4298 289.767 65.5298C290.807 65.6298 291.797 65.6198 292.707 65.5098C294.197 65.3398 295.487 64.9398 296.557 64.3098C297.627 63.6798 298.327 62.9398 298.647 62.0898L302.177 52.6898C302.417 52.0498 302.597 51.4198 302.707 50.7898C302.817 50.1698 302.707 49.5598 302.377 48.9598C302.047 48.3598 301.267 47.8198 300.057 47.3298L292.027 44.3198C291.507 44.1198 290.967 43.9798 290.417 43.8698C289.867 43.7698 289.327 43.8998 288.807 44.2598C288.287 44.6198 287.807 45.3998 287.357 46.5898C286.907 47.7798 286.747 48.6798 286.867 49.2898C286.987 49.8898 287.277 50.3398 287.727 50.6298C288.177 50.9198 288.677 51.1698 289.227 51.3798L292.617 52.6498L291.137 56.5998C290.677 56.5998 290.177 56.5498 289.627 56.4498C289.077 56.3498 288.517 56.2098 287.977 56.0398C287.427 55.8698 286.877 55.6798 286.327 55.4798C284.917 54.9498 283.757 54.0698 282.847 52.8398C281.927 51.6098 281.347 50.2198 281.087 48.6698C280.827 47.1298 280.977 45.5998 281.547 44.0998C282.097 42.6298 282.947 41.4298 284.097 40.5098C285.247 39.5798 286.547 38.9998 287.997 38.7598C289.447 38.5198 290.887 38.6698 292.327 39.2098C293.117 39.5098 293.847 39.8798 294.507 40.3098C295.167 40.7498 295.717 41.1598 296.157 41.5598C296.597 41.9498 296.897 42.2498 297.027 42.4398C297.497 43.0398 297.887 43.4898 298.167 43.7898C298.457 44.0898 298.767 44.2998 299.107 44.4298C299.627 44.6198 300.247 44.6398 300.977 44.4798C301.697 44.3198 302.517 43.9098 303.417 43.2798C303.937 42.9198 304.367 42.5598 304.717 42.1998C305.057 41.8398 305.297 41.4798 305.437 41.1098C305.717 40.3798 305.677 39.6598 305.327 38.9698L305.317 38.9498Z" fill="#FFD134"/>
</g>
<defs>
<clipPath id="clip0_2626_14903">
<rect width="316.12" height="76.11" fill="white"/>
</clipPath>
</defs>
</svg>
